<svg width="35" height="35" viewBox="0 0 35 35" fill="none" xmlns="http://www.w3.org/2000/svg">
<rect width="35" height="35" rx="17.5" fill="#212121"/>
<path d="M18.7676 13.0703C19.0098 12.843 19.4072 12.843 19.6494 13.0703L23.916 17.0762C24.1617 17.307 24.1616 17.691 23.916 17.9219L19.6494 21.9277C19.524 22.0455 19.3655 22.0995 19.209 22.0996C19.0524 22.0996 18.8932 22.0457 18.7676 21.9277C18.5219 21.6969 18.5221 21.3139 18.7676 21.083L21.9492 18.0947H11.5273C11.19 18.0947 10.9005 17.8306 10.9004 17.499C10.9005 17.1675 11.1901 16.9043 11.5273 16.9043H21.9502L18.7676 13.916C18.5217 13.6851 18.5219 13.3012 18.7676 13.0703Z" fill="white" stroke="white" stroke-width="0.2"/>
</svg>
