<svg width="35" height="35" viewBox="0 0 35 35" fill="none" xmlns="http://www.w3.org/2000/svg">
<rect x="35" y="35" width="35" height="35" rx="17.5" transform="rotate(-180 35 35)" fill="#212121"/>
<path d="M16.2324 21.9297C15.9902 22.157 15.5928 22.157 15.3506 21.9297L11.084 17.9238C10.8383 17.693 10.8384 17.309 11.084 17.0781L15.3506 13.0723C15.476 12.9545 15.6345 12.9005 15.791 12.9004C15.9476 12.9004 16.1068 12.9543 16.2324 13.0723C16.4781 13.3031 16.4779 13.6861 16.2324 13.917L13.0508 16.9053L23.4727 16.9053C23.81 16.9053 24.0995 17.1694 24.0996 17.501C24.0995 17.8325 23.8099 18.0957 23.4727 18.0957L13.0498 18.0957L16.2324 21.084C16.4783 21.3149 16.4781 21.6988 16.2324 21.9297Z" fill="white" stroke="white" stroke-width="0.2"/>
</svg>
