<svg width="25" height="25" viewBox="0 0 25 25" fill="none" xmlns="http://www.w3.org/2000/svg">
<path fill-rule="evenodd" clip-rule="evenodd" d="M9.25295 7.49867C9.6648 7.35201 10.1167 7.5695 10.2622 7.98444C10.5883 8.91403 11.4683 9.57812 12.5002 9.57812C13.5321 9.57812 14.4121 8.91403 14.7382 7.98444C14.8837 7.5695 15.3356 7.35201 15.7475 7.49867C16.1593 7.64534 16.3752 8.10061 16.2296 8.51556C15.6871 10.062 14.2233 11.1719 12.5002 11.1719C10.7771 11.1719 9.31332 10.062 8.77081 8.51556C8.62524 8.10061 8.8411 7.64534 9.25295 7.49867ZM12.8803 5.59375H12.1197C10.4052 5.59375 9.26407 5.59659 8.39981 5.70417C7.57901 5.80635 7.20067 5.98399 6.93517 6.20599C6.66968 6.42799 6.42666 6.76991 6.17572 7.56389C5.91149 8.39991 5.69842 9.52943 5.38246 11.2273C4.93956 13.6071 4.64262 15.2236 4.58988 16.4412C4.53903 17.6148 4.73423 18.1137 5.00829 18.4464C5.28235 18.7791 5.73309 19.0643 6.88733 19.2303C8.08481 19.4024 9.71646 19.4062 12.1197 19.4062H12.8803C15.2835 19.4062 16.9152 19.4024 18.1127 19.2303C19.2669 19.0643 19.7176 18.7791 19.9917 18.4464C20.2658 18.1137 20.461 17.6148 20.4101 16.4412C20.3574 15.2236 20.0604 13.6071 19.6175 11.2273C19.3016 9.52943 19.0885 8.39991 18.8243 7.56389C18.5733 6.76991 18.3303 6.42799 18.0648 6.20599C17.7993 5.98399 17.421 5.80635 16.6002 5.70417C15.7359 5.59659 14.5948 5.59375 12.8803 5.59375ZM5.92495 4.97959C4.75343 5.95917 4.44486 7.6173 3.8277 10.9335C2.95987 15.5968 2.52596 17.9284 3.79104 19.4642C5.05612 21 7.41066 21 12.1197 21H12.8803C17.5893 21 19.9439 21 21.209 19.4642C22.474 17.9284 22.0401 15.5968 21.1723 10.9335C20.5551 7.6173 20.2466 5.95917 19.0751 4.97959C17.9035 4 16.2291 4 12.8803 4H12.1197C8.77089 4 7.09647 4 5.92495 4.97959Z" fill="#212121"/>
</svg>
