<svg width="35" height="35" viewBox="0 0 35 35" fill="none" xmlns="http://www.w3.org/2000/svg">
<rect x="23.3334" y="18.9585" width="8.75" height="8.75" rx="4.375" stroke="#212121" stroke-width="2.5"/>
<path d="M16.0416 23.3333V21.1458C16.0416 18.396 16.0416 17.021 15.1874 16.1668C14.3331 15.3125 12.9582 15.3125 10.2083 15.3125H9.33329C8.79161 15.3125 8.52077 15.3125 8.29228 15.3305C5.43175 15.5556 3.15974 17.8276 2.93461 20.6882C2.91663 20.9166 2.91663 21.1875 2.91663 21.7292C2.91663 21.8646 2.91663 21.9323 2.92112 21.9894C2.9774 22.7046 3.54541 23.2726 4.26054 23.3288C4.31766 23.3333 4.38537 23.3333 4.52079 23.3333H16.0416ZM16.0416 23.3333H23.3333" stroke="#212121" stroke-width="2.5" stroke-linecap="round"/>
<path d="M13.8541 23.3335C13.8541 25.7497 11.8954 27.7085 9.47913 27.7085C7.06288 27.7085 5.10413 25.7497 5.10413 23.3335" stroke="#212121" stroke-width="2.5" stroke-linecap="round"/>
<path d="M17.5 7.29199H18.2698C20.0239 7.29199 20.901 7.29199 21.6058 7.72759C22.3106 8.1632 22.7028 8.94766 23.4873 10.5166L27.7083 18.9587" stroke="#212121" stroke-width="2.5" stroke-linecap="round"/>
<path d="M26.4579 16.0417L27.4521 15.3093C27.8354 15.0269 28.0271 14.8857 28.1604 14.7016C28.2511 14.5763 28.3213 14.4374 28.3684 14.2901C28.4375 14.0736 28.4375 13.8355 28.4375 13.3594C28.4375 12.4589 28.4375 12.0087 28.2455 11.6726C28.1163 11.4463 27.9287 11.2587 27.7024 11.1295C27.3663 10.9375 26.9161 10.9375 26.0156 10.9375H24.0625" stroke="#212121" stroke-width="2.5" stroke-linecap="round"/>
<circle cx="27.7084" cy="23.3335" r="4.375" stroke="#212121" stroke-width="2.5"/>
</svg>
