<svg width="35" height="35" viewBox="0 0 35 35" fill="none" xmlns="http://www.w3.org/2000/svg">
<circle cx="7.29163" cy="7.29199" r="4.375" stroke="#212121" stroke-width="2.5"/>
<circle cx="27.7084" cy="27.7085" r="4.375" stroke="#212121" stroke-width="2.5"/>
<path d="M16.0417 6.04199C15.3514 6.04199 14.7917 6.60164 14.7917 7.29199C14.7917 7.98235 15.3514 8.54199 16.0417 8.54199V7.29199V6.04199ZM18.9584 27.7087L19.8423 28.5925C20.0767 28.3581 20.2084 28.0402 20.2084 27.7087C20.2084 27.3771 20.0767 27.0592 19.8423 26.8248L18.9584 27.7087ZM25.0916 12.6693L25.7627 13.7239V13.7239L25.0916 12.6693ZM9.90851 22.3313L10.5796 23.3859V23.3859L9.90851 22.3313ZM17.6548 24.6373C17.1666 24.1491 16.3752 24.1491 15.887 24.6373C15.3988 25.1254 15.3988 25.9169 15.887 26.405L16.7709 25.5212L17.6548 24.6373ZM15.887 29.0123C15.3988 29.5004 15.3988 30.2919 15.887 30.78C16.3752 31.2682 17.1666 31.2682 17.6548 30.78L16.7709 29.8962L15.887 29.0123ZM23.5257 7.29199V6.04199H16.0417V7.29199V8.54199H23.5257V7.29199ZM18.9584 27.7087V26.4587H11.4744V27.7087V28.9587H18.9584V27.7087ZM25.0916 12.6693L24.4205 11.6148L9.23742 21.2767L9.90851 22.3313L10.5796 23.3859L25.7627 13.7239L25.0916 12.6693ZM18.9584 27.7087L19.8423 26.8248L17.6548 24.6373L16.7709 25.5212L15.887 26.405L18.0745 28.5925L18.9584 27.7087ZM18.9584 27.7087L18.0745 26.8248L15.887 29.0123L16.7709 29.8962L17.6548 30.78L19.8423 28.5925L18.9584 27.7087ZM11.4744 27.7087V26.4587C9.80699 26.4587 9.17286 24.2811 10.5796 23.3859L9.90851 22.3313L9.23742 21.2767C5.7206 23.5147 7.30584 28.9587 11.4744 28.9587V27.7087ZM23.5257 7.29199V8.54199C25.1931 8.54199 25.8272 10.7196 24.4205 11.6148L25.0916 12.6693L25.7627 13.7239C29.2795 11.4859 27.6943 6.04199 23.5257 6.04199V7.29199Z" fill="#212121"/>
</svg>
