<svg width="25" height="25" viewBox="0 0 25 25" fill="none" xmlns="http://www.w3.org/2000/svg">
<path d="M9.61365 19.4307L10.1524 18.7733L9.61365 19.4307ZM12.5 6.18804L11.8763 6.76554C12.0372 6.93928 12.2632 7.03804 12.5 7.03804C12.7368 7.03804 12.9628 6.93928 13.1237 6.76554L12.5 6.18804ZM15.3864 19.4307L15.9251 20.0882L15.3864 19.4307ZM9.61365 19.4307L10.1524 18.7733C8.70521 17.5874 7.14467 16.4458 5.90489 14.9947C4.69393 13.5772 3.85 11.9255 3.85 9.77907H3H2.15C2.15 12.4348 3.2153 14.4637 4.61237 16.0989C5.98061 17.7004 7.72689 18.9836 9.0749 20.0882L9.61365 19.4307ZM3 9.77907H3.85C3.85 7.67794 4.99205 5.94127 6.51172 5.21919C7.96801 4.52724 9.95271 4.68809 11.8763 6.76554L12.5 6.18804L13.1237 5.61053C10.7724 3.07123 8.00714 2.6265 5.78214 3.68371C3.62053 4.7108 2.15 7.07801 2.15 9.77907H3ZM9.61365 19.4307L9.0749 20.0882C9.56009 20.4858 10.0899 20.9174 10.6292 21.2449C11.1674 21.5718 11.8008 21.85 12.5 21.85V21V20.15C12.2492 20.15 11.9326 20.0477 11.5117 19.792C11.0919 19.537 10.6536 19.1839 10.1524 18.7733L9.61365 19.4307ZM15.3864 19.4307L15.9251 20.0882C17.2731 18.9836 19.0194 17.7004 20.3876 16.0989C21.7847 14.4637 22.85 12.4348 22.85 9.77907H22H21.15C21.15 11.9255 20.3061 13.5772 19.0951 14.9947C17.8553 16.4458 16.2948 17.5874 14.8476 18.7733L15.3864 19.4307ZM22 9.77907H22.85C22.85 7.07801 21.3795 4.7108 19.2179 3.68371C16.9929 2.6265 14.2276 3.07123 11.8763 5.61053L12.5 6.18804L13.1237 6.76554C15.0473 4.68809 17.032 4.52724 18.4883 5.21919C20.008 5.94127 21.15 7.67794 21.15 9.77907H22ZM15.3864 19.4307L14.8476 18.7733C14.3464 19.1839 13.9081 19.537 13.4883 19.792C13.0674 20.0477 12.7508 20.15 12.5 20.15V21V21.85C13.1992 21.85 13.8326 21.5718 14.3708 21.2449C14.9101 20.9174 15.4399 20.4858 15.9251 20.0882L15.3864 19.4307Z" fill="#212121"/>
</svg>
