<svg width="18" height="16" viewBox="0 0 18 16" fill="none" xmlns="http://www.w3.org/2000/svg">
<path d="M0.75 5.50996C0.75 9.4647 3.96554 11.5721 6.31939 13.4584C7.15 14.124 7.95 14.7507 8.75 14.7507C9.55 14.7507 10.35 14.124 11.1806 13.4584C13.5345 11.5721 16.75 9.4647 16.75 5.50996C16.75 1.55523 12.3499 -1.24939 8.75 2.55265C5.15013 -1.24939 0.75 1.55523 0.75 5.50996Z" fill="#FF1F1F"/>
<path d="M6.31939 13.4584L5.85038 14.0437V14.0437L6.31939 13.4584ZM8.75 2.55265L8.20539 3.0683C8.34703 3.2179 8.54398 3.30264 8.75 3.30264C8.95602 3.30265 9.15297 3.2179 9.29461 3.0683L8.75 2.55265ZM11.1806 13.4584L10.7116 12.8731H10.7116L11.1806 13.4584ZM6.31939 13.4584L6.78839 12.8731C5.56728 11.8946 4.25757 10.9577 3.21682 9.76641C2.2017 8.60443 1.5 7.25728 1.5 5.50996H0.75H0C0 7.71738 0.906073 9.4013 2.08718 10.7533C3.24267 12.0759 4.71765 13.1359 5.85038 14.0437L6.31939 13.4584ZM0.75 5.50996H1.5C1.5 3.8064 2.44672 2.39251 3.7161 1.80267C4.93471 1.23642 6.59609 1.36862 8.20539 3.0683L8.75 2.55265L9.29461 2.03699C7.30404 -0.065365 4.96542 -0.431875 3.084 0.442359C1.25334 1.29301 0 3.2588 0 5.50996H0.75ZM6.31939 13.4584L5.85038 14.0437C6.25872 14.3709 6.70671 14.7279 7.16314 14.999C7.61902 15.2698 8.15647 15.5007 8.75 15.5007V14.7507V14.0007C8.54353 14.0007 8.28098 13.9183 7.92921 13.7094C7.57798 13.5007 7.21066 13.2115 6.78839 12.8731L6.31939 13.4584ZM11.1806 13.4584L11.6496 14.0437C12.7823 13.1359 14.2573 12.0759 15.4128 10.7533C16.5939 9.4013 17.5 7.71738 17.5 5.50996H16.75H16C16 7.25728 15.2983 8.60443 14.2832 9.76641C13.2424 10.9577 11.9327 11.8946 10.7116 12.8731L11.1806 13.4584ZM16.75 5.50996H17.5C17.5 3.2588 16.2467 1.29301 14.416 0.442359C12.5346 -0.431875 10.196 -0.065365 8.20539 2.03699L8.75 2.55265L9.29461 3.0683C10.9039 1.36862 12.5653 1.23642 13.7839 1.80267C15.0533 2.39251 16 3.8064 16 5.50996H16.75ZM11.1806 13.4584L10.7116 12.8731C10.2893 13.2115 9.92202 13.5007 9.57079 13.7094C9.21902 13.9183 8.95647 14.0007 8.75 14.0007V14.7507V15.5007C9.34353 15.5007 9.88098 15.2698 10.3369 14.999C10.7933 14.7279 11.2413 14.3709 11.6496 14.0437L11.1806 13.4584Z" fill="#212121"/>
</svg>
