<svg width="180" height="24" viewBox="0 0 180 24" fill="none" xmlns="http://www.w3.org/2000/svg">
<path d="M63.4993 7.18678C65.2625 7.18678 66.8604 7.61434 68.2917 8.46849C69.7226 9.32247 70.7904 10.4891 71.4956 11.9678L67.2029 14.0006C66.871 13.2506 66.3727 12.6659 65.709 12.2492C65.066 11.8327 64.3289 11.6253 63.4993 11.6253C62.4419 11.6254 61.5399 11.9998 60.7934 12.7494C60.0674 13.4785 59.7046 14.4276 59.7046 15.5942C59.7047 16.7605 60.0676 17.7181 60.7934 18.4679C61.54 19.197 62.4417 19.5613 63.4993 19.5615C64.3083 19.5615 65.0356 19.3753 65.6786 19.0003C66.3214 18.6045 66.8086 18.052 67.1404 17.3439L71.4332 19.375C70.7073 20.791 69.6295 21.9156 68.1989 22.7488C66.7883 23.5821 65.221 24 63.4993 24C61.1349 23.9999 59.1335 23.2079 57.4949 21.6248C55.8564 20.0416 55.0373 18.0314 55.0371 15.5942C55.0371 13.1568 55.8563 11.1453 57.4949 9.56202C59.1334 7.97897 61.135 7.1869 63.4993 7.18678Z" fill="#212121"/>
<path fill-rule="evenodd" clip-rule="evenodd" d="M82.0679 7.18678C84.4948 7.18678 86.5394 7.97871 88.1989 9.56202C89.8581 11.1453 90.687 13.1569 90.687 15.5942C90.6869 18.0312 89.8579 20.0416 88.1989 21.6248C86.5394 23.2081 84.4948 24 82.0679 24C79.6413 23.9998 77.5978 23.2079 75.9386 21.6248C74.2795 20.0416 73.4505 18.0312 73.4504 15.5942C73.4504 13.1569 74.2793 11.1453 75.9386 9.56202C77.5978 7.97889 79.6413 7.18695 82.0679 7.18678ZM82.0679 11.6253C80.9691 11.6255 80.0363 11.9999 79.2691 12.7494C78.5016 13.4785 78.1178 14.4276 78.1178 15.5942C78.118 16.7606 78.5018 17.7181 79.2691 18.4679C80.0363 19.1968 80.9689 19.5613 82.0679 19.5615C83.1672 19.5615 84.1009 19.197 84.8683 18.4679C85.6357 17.7181 86.0194 16.7606 86.0196 15.5942C86.0196 14.4276 85.6358 13.4785 84.8683 12.7494C84.101 11.9997 83.167 11.6253 82.0679 11.6253Z" fill="#212121"/>
<path fill-rule="evenodd" clip-rule="evenodd" d="M135.697 7.18678C138.124 7.18678 140.169 7.97871 141.828 9.56202C143.487 11.1453 144.316 13.1569 144.316 15.5942C144.316 18.0312 143.487 20.0416 141.828 21.6248C140.169 23.2081 138.124 24 135.697 24C133.271 23.9998 131.227 23.2079 129.568 21.6248C127.909 20.0416 127.08 18.0312 127.08 15.5942C127.08 13.1569 127.909 11.1453 129.568 9.56202C131.227 7.97889 133.271 7.18695 135.697 7.18678ZM135.697 11.6253C134.598 11.6255 133.666 11.9999 132.898 12.7494C132.131 13.4785 131.747 14.4276 131.747 15.5942C131.747 16.7606 132.131 17.7181 132.898 18.4679C133.666 19.1968 134.598 19.5613 135.697 19.5615C136.796 19.5615 137.73 19.197 138.498 18.4679C139.265 17.7181 139.649 16.7606 139.649 15.5942C139.649 14.4276 139.265 13.4785 138.498 12.7494C137.73 11.9997 136.796 11.6253 135.697 11.6253Z" fill="#212121"/>
<path fill-rule="evenodd" clip-rule="evenodd" d="M163.55 23.4371H158.883V21.0483C158.746 21.2457 158.601 21.4383 158.447 21.6248C157.12 23.2079 155.46 24 153.469 24C151.457 23.9999 149.756 23.1982 148.366 21.5942C146.997 19.9903 146.313 17.9897 146.313 15.5942C146.313 13.1988 146.997 11.1983 148.366 9.59424C149.756 7.99018 151.457 7.18686 153.469 7.18678C155.46 7.18678 157.119 7.99009 158.447 9.59424C158.601 9.778 158.746 9.9672 158.883 10.1622V0H163.55V23.4371ZM154.931 11.6253C153.811 11.6255 152.867 11.9996 152.1 12.7494C151.353 13.4994 150.981 14.4484 150.981 15.5942C150.981 16.7397 151.353 17.6876 152.1 18.4374C152.867 19.1872 153.811 19.5613 154.931 19.5615C156.051 19.5615 156.985 19.1871 157.731 18.4374C158.499 17.6876 158.882 16.7397 158.883 15.5942C158.883 14.4484 158.499 13.4994 157.731 12.7494C156.985 11.9997 156.051 11.6253 154.931 11.6253Z" fill="#212121"/>
<path d="M13.1989 14.2498C13.1989 15.7706 13.6149 16.9577 14.4446 17.8118C15.2743 18.6658 16.3419 19.0935 17.6485 19.0935C18.9553 19.0935 20.0244 18.666 20.8542 17.8118C21.6835 16.9577 22.0982 15.7702 22.0982 14.2498V1.56315H26.7657V14.5617C26.7657 17.2284 25.8933 19.4374 24.1509 21.1873C22.4086 22.9162 20.2412 23.7813 17.6485 23.7813C15.0559 23.7813 12.8885 22.9163 11.1462 21.1873C9.40379 19.4374 8.5314 17.2284 8.5314 14.5617V1.56315H13.1989V14.2498Z" fill="#212121"/>
<path fill-rule="evenodd" clip-rule="evenodd" d="M172.812 7.46821C174.762 7.46821 176.442 8.05155 177.853 9.21786C179.284 10.3637 180 11.7192 180 13.2817V23.4371H175.333V21.3484C175.182 21.5745 175.016 21.7918 174.835 21.9994C173.797 23.1868 172.491 23.7813 170.915 23.7813C169.525 23.7813 168.383 23.344 167.492 22.4691C166.6 21.5941 166.155 20.4782 166.155 19.124C166.155 17.7497 166.6 16.625 167.492 15.7502C168.404 14.8544 169.66 14.3118 171.258 14.1243L175.333 13.5937V13.4377C175.333 12.9585 175.094 12.552 174.617 12.2187C174.161 11.8647 173.601 11.688 172.937 11.688C172.357 11.688 171.848 11.8436 171.413 12.156C170.977 12.4475 170.697 12.8431 170.572 13.3428L166.03 11.8745C166.465 10.5622 167.305 9.49964 168.55 8.6872C169.794 7.87479 171.215 7.46829 172.812 7.46821ZM172.346 17.5626C171.33 17.6876 170.822 18.052 170.822 18.6561C170.822 19.3643 171.361 19.7191 172.439 19.7191C173.29 19.7191 173.985 19.5102 174.524 19.0935C175.063 18.656 175.333 18.1038 175.333 17.4371V17.1879L172.346 17.5626Z" fill="#212121"/>
<path d="M39.0057 7.46821C40.6859 7.46821 42.0662 8.02046 43.1448 9.12461C44.2234 10.2288 44.762 11.7398 44.762 13.6564V23.4371H40.0945V14.7499C40.0945 13.8541 39.8462 13.1561 39.3484 12.6561C38.8714 12.1562 38.239 11.9069 37.451 11.9068C36.7043 11.9068 36.0496 12.1869 35.4895 12.7494C35.0179 13.2232 34.7535 13.7933 34.6945 14.4583L34.681 14.7499V23.4371H30.0135V7.81238H34.681V9.56202C35.8424 8.16635 37.2843 7.46835 39.0057 7.46821Z" fill="#212121"/>
<path d="M52.576 23.4371H47.8781V7.81238H52.576V23.4371Z" fill="#212121"/>
<path d="M113.081 13.7819L119.333 1.56315H124.748V23.4371H120.049V9.21786L114.573 20.1243H111.617L106.111 9.21786V23.4371H101.413V1.56315H106.826L113.081 13.7819Z" fill="#212121"/>
<path d="M50.211 0.406895C50.9992 0.406895 51.6636 0.67733 52.2029 1.21899C52.7418 1.7604 53.0113 2.42672 53.0115 3.21786C53.0115 3.98868 52.7422 4.64625 52.2029 5.18791C51.6636 5.7087 50.9992 5.96948 50.211 5.96948C49.4438 5.96943 48.7904 5.70848 48.2512 5.18791C47.7119 4.64625 47.4426 3.98868 47.4426 3.21786C47.4428 2.4266 47.7121 1.76044 48.2512 1.21899C48.7904 0.677384 49.4436 0.406949 50.211 0.406895Z" fill="#212121"/>
<path d="M0 22.5691L5.18569 14.7567V22.5691H0Z" fill="#212121"/>
</svg>
