<svg width="25" height="25" viewBox="0 0 25 25" fill="none" xmlns="http://www.w3.org/2000/svg">
<path d="M18.5802 18.5802C18.8704 18.29 19.3408 18.29 19.631 18.5802L21.2827 20.2319C21.5722 20.5221 21.5727 20.9927 21.2827 21.2827C20.9927 21.5727 20.5221 21.5722 20.2319 21.2827L18.5802 19.631C18.29 19.3408 18.29 18.8704 18.5802 18.5802Z" fill="#212121"/>
<path fill-rule="evenodd" clip-rule="evenodd" d="M12.0875 3.5C16.8298 3.50037 20.6741 7.34517 20.6741 12.0875C20.6737 16.8296 16.8296 20.6737 12.0875 20.6741C7.34516 20.6741 3.50035 16.8298 3.5 12.0875C3.5 7.34494 7.34494 3.5 12.0875 3.5ZM12.0875 4.98624C8.16577 4.98624 4.98624 8.16577 4.98624 12.0875C4.98659 16.009 8.16599 19.1878 12.0875 19.1878C16.0087 19.1874 19.1875 16.0087 19.1878 12.0875C19.1878 8.166 16.0089 4.98661 12.0875 4.98624Z" fill="#212121"/>
<path d="M18.5802 18.5802C18.8704 18.29 19.3408 18.29 19.631 18.5802L21.2827 20.2319C21.5722 20.5221 21.5727 20.9927 21.2827 21.2827C20.9927 21.5727 20.5221 21.5722 20.2319 21.2827L18.5802 19.631C18.29 19.3408 18.29 18.8704 18.5802 18.5802Z" stroke="#212121" stroke-width="0.2" stroke-linecap="round"/>
<path fill-rule="evenodd" clip-rule="evenodd" d="M12.0875 3.5C16.8298 3.50037 20.6741 7.34517 20.6741 12.0875C20.6737 16.8296 16.8296 20.6737 12.0875 20.6741C7.34516 20.6741 3.50035 16.8298 3.5 12.0875C3.5 7.34494 7.34494 3.5 12.0875 3.5ZM12.0875 4.98624C8.16577 4.98624 4.98624 8.16577 4.98624 12.0875C4.98659 16.009 8.16599 19.1878 12.0875 19.1878C16.0087 19.1874 19.1875 16.0087 19.1878 12.0875C19.1878 8.166 16.0089 4.98661 12.0875 4.98624Z" stroke="#212121" stroke-width="0.2" stroke-linecap="round"/>
</svg>
