<svg width="30" height="30" viewBox="0 0 30 30" fill="none" xmlns="http://www.w3.org/2000/svg">
<rect x="0.15" y="0.15" width="29.7" height="29.7" rx="14.85" stroke="#212121" stroke-width="0.3"/>
<path d="M9.39368 14.2355C12.8833 12.6831 15.2103 11.6597 16.3746 11.1653C19.699 9.7535 20.3897 9.50826 20.84 9.50008C20.939 9.49838 21.1604 9.52344 21.3038 9.64226C21.4249 9.7426 21.4583 9.87813 21.4742 9.97325C21.4901 10.0684 21.51 10.2851 21.4942 10.4544C21.3141 12.387 20.5346 17.0769 20.138 19.2415C19.9702 20.1574 19.6398 20.4645 19.3199 20.4945C18.6248 20.5599 18.0969 20.0255 17.4236 19.5749C16.3701 18.8697 15.7749 18.4308 14.7522 17.7427C13.5703 16.9475 14.3365 16.5104 15.01 15.7962C15.1863 15.6092 18.2492 12.7648 18.3084 12.5067C18.3159 12.4745 18.3227 12.3542 18.2527 12.2906C18.1828 12.2271 18.0794 12.2488 18.0049 12.2661C17.8992 12.2906 16.2162 13.4264 12.9557 15.6736C12.4779 16.0086 12.0452 16.1718 11.6575 16.1632C11.2301 16.1538 10.4079 15.9165 9.79673 15.7136C9.04708 15.4648 8.45127 15.3333 8.50315 14.9107C8.53017 14.6906 8.82702 14.4656 9.39368 14.2355Z" fill="#212121"/>
</svg>
