<svg width="25" height="25" viewBox="0 0 25 25" fill="none" xmlns="http://www.w3.org/2000/svg">
<path fill-rule="evenodd" clip-rule="evenodd" d="M11.75 1.75018C9.12669 1.75018 7.00007 3.8768 7.00007 6.50011C7.00007 9.12342 9.12669 11.25 11.75 11.25C14.3733 11.25 16.4999 9.12342 16.4999 6.50011C16.4999 3.8768 14.3733 1.75018 11.75 1.75018ZM8.50005 6.50011C8.50005 4.70521 9.9551 3.25016 11.75 3.25016C13.5449 3.25016 15 4.70521 15 6.50011C15 8.29501 13.5449 9.75006 11.75 9.75006C9.9551 9.75006 8.50005 8.29501 8.50005 6.50011Z" fill="#212121"/>
<path fill-rule="evenodd" clip-rule="evenodd" d="M11.75 12.75C9.43648 12.75 7.30499 13.2759 5.72554 14.1643C4.1696 15.0395 3.00013 16.366 3.00013 17.9999L3.00007 18.1019C2.99894 19.2637 2.99752 20.7219 4.27653 21.7634C4.90599 22.276 5.78657 22.6405 6.97628 22.8813C8.16932 23.1228 9.72426 23.2499 11.75 23.2499C13.7757 23.2499 15.3307 23.1228 16.5237 22.8813C17.7134 22.6405 18.594 22.276 19.2235 21.7634C20.5025 20.7219 20.5011 19.2637 20.4999 18.1019L20.4999 17.9999C20.4999 16.366 19.3304 15.0395 17.7745 14.1643C16.195 13.2759 14.0635 12.75 11.75 12.75ZM4.50011 17.9999C4.50011 17.1486 5.12148 16.2251 6.46092 15.4717C7.77686 14.7315 9.64531 14.25 11.75 14.25C13.8547 14.25 15.7231 14.7315 17.0391 15.4717C18.3785 16.2251 18.9999 17.1486 18.9999 17.9999C18.9999 19.3077 18.9596 20.0439 18.2763 20.6003C17.9058 20.902 17.2864 21.1966 16.2261 21.4112C15.1692 21.6251 13.7242 21.7499 11.75 21.7499C9.77581 21.7499 8.33079 21.6251 7.27386 21.4112C6.21361 21.1966 5.59421 20.902 5.22369 20.6003C4.54043 20.0439 4.50011 19.3077 4.50011 17.9999Z" fill="#212121"/>
<path fill-rule="evenodd" clip-rule="evenodd" d="M11.75 1.75018C9.12669 1.75018 7.00007 3.8768 7.00007 6.50011C7.00007 9.12342 9.12669 11.25 11.75 11.25C14.3733 11.25 16.4999 9.12342 16.4999 6.50011C16.4999 3.8768 14.3733 1.75018 11.75 1.75018ZM8.50005 6.50011C8.50005 4.70521 9.9551 3.25016 11.75 3.25016C13.5449 3.25016 15 4.70521 15 6.50011C15 8.29501 13.5449 9.75006 11.75 9.75006C9.9551 9.75006 8.50005 8.29501 8.50005 6.50011Z" stroke="#212121" stroke-width="0.2"/>
<path fill-rule="evenodd" clip-rule="evenodd" d="M11.75 12.75C9.43648 12.75 7.30499 13.2759 5.72554 14.1643C4.1696 15.0395 3.00013 16.366 3.00013 17.9999L3.00007 18.1019C2.99894 19.2637 2.99752 20.7219 4.27653 21.7634C4.90599 22.276 5.78657 22.6405 6.97628 22.8813C8.16932 23.1228 9.72426 23.2499 11.75 23.2499C13.7757 23.2499 15.3307 23.1228 16.5237 22.8813C17.7134 22.6405 18.594 22.276 19.2235 21.7634C20.5025 20.7219 20.5011 19.2637 20.4999 18.1019L20.4999 17.9999C20.4999 16.366 19.3304 15.0395 17.7745 14.1643C16.195 13.2759 14.0635 12.75 11.75 12.75ZM4.50011 17.9999C4.50011 17.1486 5.12148 16.2251 6.46092 15.4717C7.77686 14.7315 9.64531 14.25 11.75 14.25C13.8547 14.25 15.7231 14.7315 17.0391 15.4717C18.3785 16.2251 18.9999 17.1486 18.9999 17.9999C18.9999 19.3077 18.9596 20.0439 18.2763 20.6003C17.9058 20.902 17.2864 21.1966 16.2261 21.4112C15.1692 21.6251 13.7242 21.7499 11.75 21.7499C9.77581 21.7499 8.33079 21.6251 7.27386 21.4112C6.21361 21.1966 5.59421 20.902 5.22369 20.6003C4.54043 20.0439 4.50011 19.3077 4.50011 17.9999Z" stroke="#212121" stroke-width="0.2"/>
</svg>
