<svg width="30" height="30" viewBox="0 0 30 30" fill="none" xmlns="http://www.w3.org/2000/svg">
<rect x="0.15" y="0.15" width="29.7" height="29.7" rx="14.85" stroke="#212121" stroke-width="0.3"/>
<path fill-rule="evenodd" clip-rule="evenodd" d="M15.2402 9C17.9561 9 19.3118 9.00026 20.1598 9.84023C20.9997 10.6922 21 12.0479 21 14.7598V15.2402C21 17.9561 20.9997 19.3118 20.1598 20.1598C19.3078 20.9997 17.9521 21 15.2402 21H14.7598C12.0439 21 10.6882 20.9997 9.84023 20.1598C9.00026 19.3078 9 17.9521 9 15.2402V14.7598C9 12.0439 9.00026 10.6882 9.84023 9.84023C10.6922 9.00026 12.0479 9 14.7598 9H15.2402ZM17.4445 12.648C17.1645 13.64 16.3318 14.5398 15.5438 14.6238V12.6516H14.2523V16.1086C13.4523 15.9086 12.4436 14.9396 12.3996 12.6516H11.0238C11.0878 15.7716 12.6484 17.6438 15.3844 17.6438H15.5438V15.8602C16.5477 15.9601 17.3081 16.6959 17.6121 17.6438H19.0324C18.8868 17.1051 18.6279 16.6034 18.2742 16.1719C17.9207 15.7405 17.4797 15.3892 16.9805 15.1406C17.4281 14.868 17.8146 14.5053 18.116 14.0766C18.4174 13.6478 18.6274 13.1615 18.7324 12.648H17.4445Z" fill="#212121"/>
</svg>
