<svg width="30" height="30" viewBox="0 0 30 30" fill="none" xmlns="http://www.w3.org/2000/svg">
<rect x="0.15" y="0.15" width="29.7" height="29.7" rx="14.85" stroke="#212121" stroke-width="0.3"/>
<path d="M21.65 11.5179C21.475 10.8929 21.0375 10.4464 20.425 10.2679C19.375 10 14.9125 10 14.9125 10C14.9125 10 10.5375 10 9.40001 10.2679C8.78751 10.4464 8.35 10.8929 8.175 11.5179C8 12.6786 8 15 8 15C8 15 8 17.3214 8.2625 18.4821C8.4375 19.1071 8.875 19.5536 9.4875 19.7321C10.5375 20 15 20 15 20C15 20 19.375 20 20.5125 19.7321C21.125 19.5536 21.5625 19.1071 21.7375 18.4821C22 17.3214 22 15 22 15C22 15 22 12.6786 21.65 11.5179ZM13.6 17.1429V12.8571L17.275 15L13.6 17.1429Z" fill="#212121"/>
</svg>
