<svg width="30" height="30" viewBox="0 0 30 30" fill="none" xmlns="http://www.w3.org/2000/svg">
<rect x="0.15" y="0.15" width="29.7" height="29.7" rx="14.85" stroke="#212121" stroke-width="0.3"/>
<path d="M16.1571 16.1571C15.2143 17.13 15.1457 18.3429 15.0643 21C17.5414 21 19.2514 20.9914 20.1343 20.1343C20.9914 19.2514 21 17.46 21 15.0643C18.3429 15.15 17.13 15.2143 16.1571 16.1571ZM9 15.0643C9 17.46 9.00857 19.2514 9.86571 20.1343C10.7486 20.9914 12.4586 21 14.9357 21C14.85 18.3429 14.7857 17.13 13.8429 16.1571C12.87 15.2143 11.6571 15.1457 9 15.0643ZM14.9357 9C12.4629 9 10.7486 9.00857 9.86571 9.86571C9.00857 10.7486 9 12.54 9 14.9357C11.6571 14.85 12.87 14.7857 13.8429 13.8429C14.7857 12.87 14.8543 11.6571 14.9357 9ZM16.1571 13.8429C15.2143 12.87 15.1457 11.6571 15.0643 9C17.5414 9 19.2514 9.00857 20.1343 9.86571C20.9914 10.7486 21 12.54 21 14.9357C18.3429 14.85 17.13 14.7857 16.1571 13.8429Z" fill="#212121"/>
<path d="M21 15.0643V14.9357C18.3429 14.85 17.13 14.7857 16.1571 13.8429C15.2143 12.87 15.1457 11.6571 15.0643 9H14.9357C14.85 11.6571 14.7857 12.87 13.8429 13.8429C12.87 14.7857 11.6571 14.8543 9 14.9357V15.0643C11.6571 15.15 12.87 15.2143 13.8429 16.1571C14.7857 17.13 14.8543 18.3429 14.9357 21H15.0643C15.15 18.3429 15.2143 17.13 16.1571 16.1571C17.13 15.2143 18.3429 15.1457 21 15.0643Z" fill="white"/>
</svg>
